<svg xmlns="http://www.w3.org/2000/svg" viewBox="0 0 1600 900">
  <defs>
    <linearGradient id="sky" x1="0" y1="0" x2="0" y2="1">
      <stop offset="0%" stop-color="#7fd4ff"/>
      <stop offset="55%" stop-color="#dff5ff"/>
      <stop offset="100%" stop-color="#fff7d8"/>
    </linearGradient>
    <linearGradient id="sea" x1="0" y1="0" x2="0" y2="1">
      <stop offset="0%" stop-color="#69c7ef"/>
      <stop offset="100%" stop-color="#2da4d7"/>
    </linearGradient>
  </defs>
  <rect width="1600" height="900" fill="url(#sky)"/>
  <circle cx="1230" cy="160" r="72" fill="#fff1ab" opacity="0.95"/>
  <path d="M0 430 C260 390 430 390 690 430 S1180 490 1600 430 V640 H0 Z" fill="url(#sea)"/>
  <path d="M0 520 C250 490 420 490 680 520 S1170 570 1600 520" fill="none" stroke="#ffffff" stroke-opacity="0.6" stroke-width="10"/>
  <path d="M0 610 C250 590 410 600 680 620 S1170 660 1600 610 V900 H0 Z" fill="#f1ddb0"/>
  <path d="M0 670 C290 650 530 690 820 675 S1270 640 1600 700 V900 H0 Z" fill="#ebd39d" opacity="0.75"/>
  <path d="M126 670 C138 566 160 498 194 420" stroke="#6a4a27" stroke-width="18" stroke-linecap="round"/>
  <path d="M194 420 C302 328 372 312 450 332" stroke="#2d9d69" stroke-width="20" stroke-linecap="round" fill="none"/>
  <path d="M196 420 C294 368 340 360 396 386" stroke="#34b57a" stroke-width="16" stroke-linecap="round" fill="none"/>
  <ellipse cx="220" cy="756" rx="90" ry="26" fill="#dcbf84" opacity="0.5"/>
</svg>
