<svg xmlns="http://www.w3.org/2000/svg" viewBox="0 0 1600 900">
  <defs>
    <linearGradient id="sky" x1="0" y1="0" x2="0" y2="1">
      <stop offset="0%" stop-color="#c8def1"/>
      <stop offset="100%" stop-color="#f5fbff"/>
    </linearGradient>
  </defs>
  <rect width="1600" height="900" fill="url(#sky)"/>
  <circle cx="1220" cy="150" r="64" fill="#fffdf2" opacity="0.85"/>
  <path d="M0 520 C250 450 510 470 810 520 S1300 610 1600 560 V900 H0 Z" fill="#edf6fc"/>
  <path d="M0 640 C240 590 520 620 800 650 S1270 630 1600 680 V900 H0 Z" fill="#ffffff"/>
  <path d="M1140 540 L1185 360 L1230 540 Z" fill="#7d93a8"/>
  <path d="M1215 560 L1268 340 L1320 560 Z" fill="#8ca1b5"/>
  <path d="M990 590 L1050 390 L1110 590 Z" fill="#9eb2c4"/>
  <g fill="#ffffff" opacity="0.95">
    <circle cx="180" cy="150" r="5"/><circle cx="320" cy="260" r="4"/><circle cx="440" cy="110" r="6"/>
    <circle cx="620" cy="220" r="5"/><circle cx="790" cy="140" r="4"/><circle cx="970" cy="250" r="6"/>
    <circle cx="1160" cy="210" r="5"/><circle cx="1370" cy="130" r="4"/><circle cx="1470" cy="280" r="6"/>
  </g>
</svg>
